<?xml version="1.0" encoding="utf-8"?>
<!-- Generator: Adobe Illustrator 23.0.6, SVG Export Plug-In . SVG Version: 6.00 Build 0)  -->
<svg version="1.1" id="Слой_1" xmlns="http://www.w3.org/2000/svg" xmlns:xlink="http://www.w3.org/1999/xlink" x="0px" y="0px"
	 width="39.9370575px" height="56px" viewBox="0 0 39.9370575 56" style="enable-background:new 0 0 39.9370575 56;"
	 xml:space="preserve">
<style type="text/css">
	.st0{fill:#212238;}
</style>
<path id="pin-2" class="st0" d="M19.9689655,0C8.8748055,0,0,9.3139706,0,20.9562149
	c0.0526981,13.9998245,7.1388173,27.0356293,18.8588524,34.6932144c0.7461052,0.4674263,1.6937008,0.4674263,2.4398079,0
	c11.0950317-7.6836548,18.6383972-20.2573853,18.6383972-34.6932144C39.9370575,9.3139706,31.062252,0,19.9689655,0z
	 M19.9689655,30.2701855c-5.015276-0.1382866-8.979104-4.2978554-8.8756771-9.3139706
	c-0.1034269-5.0161133,3.8604012-9.175683,8.8756771-9.3139696c5.0142441,0.1396961,8.9765053,4.2988472,8.8730602,9.3139696
	C28.9454708,25.9713383,24.9832096,30.1304893,19.9689655,30.2701855z"/>
</svg>
